<?xml version="1.0" encoding="UTF-8" standalone="no"?>
<svg
   xmlns:dc="http://purl.org/dc/elements/1.1/"
   xmlns:cc="http://creativecommons.org/ns#"
   xmlns:rdf="http://www.w3.org/1999/02/22-rdf-syntax-ns#"
   xmlns:svg="http://www.w3.org/2000/svg"
   xmlns="http://www.w3.org/2000/svg"
   xmlns:sodipodi="http://sodipodi.sourceforge.net/DTD/sodipodi-0.dtd"
   xmlns:inkscape="http://www.inkscape.org/namespaces/inkscape"
   version="1.1"
   id="Capa_1"
   x="0px"
   y="0px"
   viewBox="0 0 475.2 475.2"
   style="enable-background:new 0 0 475.2 475.2;"
   xml:space="preserve"
   width="512px"
   height="512px"
   class=""
   sodipodi:docname="cancel.svg"
   inkscape:version="0.92.2 (5c3e80d, 2017-08-06)"><metadata
     id="metadata3769"><rdf:RDF><cc:Work
         rdf:about=""><dc:format>image/svg+xml</dc:format><dc:type
           rdf:resource="http://purl.org/dc/dcmitype/StillImage" /><dc:title></dc:title></cc:Work></rdf:RDF></metadata><defs
     id="defs3767" /><sodipodi:namedview
     pagecolor="#ffffff"
     bordercolor="#666666"
     borderopacity="1"
     objecttolerance="10"
     gridtolerance="10"
     guidetolerance="10"
     inkscape:pageopacity="0"
     inkscape:pageshadow="2"
     inkscape:window-width="1920"
     inkscape:window-height="988"
     id="namedview3765"
     showgrid="false"
     inkscape:pagecheckerboard="true"
     inkscape:zoom="1.1145218"
     inkscape:cx="401.19018"
     inkscape:cy="244.95695"
     inkscape:window-x="2560"
     inkscape:window-y="27"
     inkscape:window-maximized="1"
     inkscape:current-layer="layer2" /><g
     inkscape:groupmode="layer"
     id="layer1"
     inkscape:label="Layer 1" /><g
     inkscape:groupmode="layer"
     id="layer2"
     inkscape:label="Layer 2"><g
       id="g3837"><g
         id="g3829"><path
           style="enable-background:new 0 0 475.19999999999998863 475.19999999999998863;fill:#ffffff;stroke-width:1.43356502"
           d="m 242.52266,27.073058 c -56.2,0 -109.10061,21.90037 -148.900607,61.700369 -82.1,82.099993 -82.1,215.699423 0,297.799423 39.799997,39.80001 92.700607,61.70038 148.900607,61.70038 56.2,0 109.10059,-21.90037 148.90059,-61.70038 82.1,-82.1 82.1,-215.69943 0,-297.799423 -39.8,-39.799999 -92.70059,-61.700369 -148.90059,-61.700369 z"
           id="path3801"
           inkscape:connector-curvature="0" /><g
           style="enable-background:new 0 0 475.19999999999998863 475.19999999999998863"
           id="g3817"><g
             id="g3812"><path
               style="fill:#a7474c"
               inkscape:connector-curvature="0"
               id="path3754"
               data-old_color="#a7474c"
               class="active-path"
               data-original="#000000"
               d="m 409.76378,69.6 c -44.9,-44.9 -104.5,-69.6 -168,-69.6 -63.5,0 -123.1,24.7 -167.999999,69.6 -44.9,44.9 -69.5999998,104.5 -69.5999998,168 0,63.5 24.6999998,123.1 69.5999998,168 44.899999,44.9 104.499999,69.6 167.999999,69.6 63.5,0 123.1,-24.7 168,-69.6 44.9,-44.9 69.6,-104.5 69.6,-168 0,-63.5 -24.7,-123.1 -69.6,-168 z m -19.1,316.9 c -39.8,39.8 -92.7,61.7 -148.9,61.7 -56.2,0 -109.1,-21.9 -148.899999,-61.7 -82.1,-82.1 -82.1,-215.7 0,-297.8 C 132.66378,48.9 185.56378,27 241.76378,27 c 56.2,0 109.1,21.9 148.9,61.7 82.1,82.1 82.1,215.7 0,297.8 z" /><path
               style="fill:#a7474c"
               inkscape:connector-curvature="0"
               id="path3756"
               data-old_color="#a7474c"
               class="active-path"
               data-original="#000000"
               d="m 346.46378,132.9 c -5.3,-5.3 -13.8,-5.3 -19.1,0 l -85.6,85.6 -85.6,-85.6 c -5.3,-5.3 -13.8,-5.3 -19.1,0 -5.3,5.3 -5.3,13.8 0,19.1 l 85.6,85.6 -85.6,85.6 c -5.3,5.3 -5.3,13.8 0,19.1 2.6,2.6 6.1,4 9.5,4 3.4,0 6.9,-1.3 9.5,-4 l 85.6,-85.6 85.6,85.6 c 2.6,2.6 6.1,4 9.5,4 3.5,0 6.9,-1.3 9.5,-4 5.3,-5.3 5.3,-13.8 0,-19.1 l -85.4,-85.6 85.6,-85.6 c 5.3,-5.3 5.3,-13.8 0,-19.1 z" /></g></g></g></g></g></svg>